<svg width="1051" height="332" viewBox="0 0 1051 332" fill="none" xmlns="http://www.w3.org/2000/svg">
<circle cx="35" cy="75" r="35" fill="#FFD600" fill-opacity="0.2"/>
<ellipse cx="491" cy="199.5" rx="69" ry="69.5" fill="#00FFC2" fill-opacity="0.2"/>
<ellipse cx="197" cy="161.5" rx="65" ry="65.5" fill="#FF0000" fill-opacity="0.2"/>
<circle cx="165" cy="55" r="55" fill="#0085FF" fill-opacity="0.2"/>
<circle cx="323" cy="222" r="55" fill="#0085FF" fill-opacity="0.2"/>
<circle cx="398" cy="174" r="75" fill="#FFD600" fill-opacity="0.2"/>
<ellipse cx="287" cy="83.5" rx="67" ry="67.5" fill="#00FFC2" fill-opacity="0.2"/>
<ellipse cx="98" cy="212.5" rx="75" ry="75.5" fill="#4200FF" fill-opacity="0.2"/>
<circle cx="490.5" cy="83.5" r="53.5" fill="#FF0000" fill-opacity="0.2"/>
<ellipse cx="982" cy="224.5" rx="69" ry="69.5" fill="#00FFC2" fill-opacity="0.2"/>
<ellipse cx="778" cy="108.5" rx="65" ry="65.5" fill="#FF0000" fill-opacity="0.2"/>
<circle cx="615" cy="119" r="55" fill="#0085FF" fill-opacity="0.2"/>
<circle cx="843" cy="255" r="55" fill="#0085FF" fill-opacity="0.2"/>
<circle cx="878" cy="150" r="75" fill="#FFD600" fill-opacity="0.2"/>
<ellipse cx="682" cy="166.5" rx="67" ry="67.5" fill="#00FFC2" fill-opacity="0.2"/>
<ellipse cx="581" cy="256.5" rx="75" ry="75.5" fill="#4200FF" fill-opacity="0.2"/>
<circle cx="981.5" cy="83.5" r="53.5" fill="#FF0000" fill-opacity="0.2"/>
</svg>
