<svg width="200" height="127" viewBox="0 0 200 127" fill="none" xmlns="http://www.w3.org/2000/svg">
<path d="M20.8663 0C23.4468 0 25.4369 0.284295 26.8365 0.852884C28.2361 1.37773 29.4388 1.94632 30.4448 2.55865C30.9697 2.86481 31.3852 3.10537 31.6913 3.28032C32.0412 3.41153 32.3693 3.47714 32.6754 3.47714C33.1128 3.47714 33.419 3.23658 33.5939 2.75547C33.8126 2.27435 33.9875 1.55268 34.1188 0.590458H35.6277C35.584 1.42147 35.5184 2.42744 35.4309 3.60835C35.3871 4.74553 35.3434 6.25448 35.2997 8.1352C35.2997 10.0159 35.2997 12.4871 35.2997 15.5487H33.7907C33.6158 13.2744 33.0909 11.0656 32.2162 8.92247C31.3414 6.77933 30.0949 5.02983 28.4766 3.67396C26.9021 2.27436 24.9557 1.57455 22.6377 1.57455C20.5383 1.57455 18.8106 2.16501 17.4548 3.34593C16.0989 4.52684 15.421 6.167 15.421 8.26641C15.421 10.0159 15.8583 11.5249 16.7331 12.7933C17.6078 14.0179 18.8762 15.2207 20.5383 16.4016C22.244 17.5825 24.2997 19.004 26.7052 20.666C28.8046 22.0219 30.6854 23.3778 32.3474 24.7336C34.0094 26.0895 35.3434 27.6203 36.3494 29.3261C37.3553 31.0318 37.8583 33.0656 37.8583 35.4275C37.8583 38.3142 37.0929 40.6979 35.5621 42.5786C34.075 44.4593 32.1068 45.8808 29.6575 46.843C27.2082 47.7615 24.5184 48.2207 21.588 48.2207C18.8762 48.2207 16.7112 47.9583 15.0929 47.4335C13.4746 46.9086 12.1188 46.3619 11.0253 45.7933C10.0631 45.181 9.31957 44.8748 8.79472 44.8748C8.35735 44.8748 8.02932 45.1154 7.81063 45.5965C7.63568 46.0776 7.4826 46.7993 7.35138 47.7615H5.84244C5.92991 46.7118 5.97365 45.4871 5.97365 44.0875C6.01739 42.6879 6.03926 40.8728 6.03926 38.6422C6.083 36.3678 6.10486 33.503 6.10486 30.0477H7.61381C7.78876 32.9344 8.26987 35.6462 9.05715 38.1829C9.88816 40.676 11.1347 42.6879 12.7967 44.2187C14.5025 45.7496 16.755 46.515 19.5542 46.515C21.085 46.515 22.4408 46.2525 23.6217 45.7277C24.8464 45.1591 25.8305 44.3281 26.574 43.2346C27.3176 42.1412 27.6893 40.7853 27.6893 39.167C27.6893 37.3301 27.252 35.7336 26.3772 34.3778C25.5462 33.0219 24.3872 31.7535 22.9001 30.5726C21.4567 29.3917 19.7728 28.1889 17.8484 26.9642C15.7927 25.6084 13.8683 24.2525 12.075 22.8966C10.2818 21.5408 8.83846 19.9881 7.74502 18.2386C6.69532 16.4891 6.17047 14.4115 6.17047 12.006C6.17047 9.25051 6.8484 6.99802 8.20427 5.24851C9.60387 3.45527 11.419 2.14314 13.6496 1.31213C15.9239 0.437376 18.3295 0 20.8663 0Z" fill="white"/>
<path d="M55.4398 2.62425V13.3837H63.1813V14.6958H55.4398V41.2008C55.4398 42.513 55.6803 43.4533 56.1614 44.0219C56.6426 44.5468 57.3642 44.8092 58.3265 44.8092C59.1137 44.8092 59.901 44.5249 60.6883 43.9563C61.4756 43.344 62.1754 42.3162 62.7877 40.8728L63.903 41.4633C63.2032 43.4315 62.1316 45.0498 60.6883 46.3181C59.2887 47.5865 57.3642 48.2207 54.9149 48.2207C53.4716 48.2207 52.2032 48.0239 51.1098 47.6303C50.0163 47.2804 49.0978 46.7337 48.3543 45.9901C47.3921 45.0279 46.7579 43.847 46.4517 42.4474C46.1456 41.004 45.9925 39.1452 45.9925 36.8708V14.6958H40.4815V13.3837H45.9925V4.72366C47.8294 4.72366 49.5133 4.57058 51.0442 4.26442C52.6187 3.91452 54.0839 3.3678 55.4398 2.62425Z" fill="white"/>
<path d="M74.2401 47.7615C72.2719 47.7615 70.6317 47.3897 69.3196 46.6462C68.0075 45.9026 67.0453 44.9185 66.4329 43.6939C65.8206 42.4255 65.5144 41.0478 65.5144 39.5607C65.5144 37.68 65.9299 36.1491 66.761 34.9682C67.6357 33.7873 68.751 32.8251 70.1069 32.0815C71.4628 31.338 72.8842 30.7257 74.3713 30.2446C75.9021 29.7635 77.3455 29.3042 78.7013 28.8668C80.1009 28.3857 81.2162 27.839 82.0472 27.2267C82.922 26.5706 83.3594 25.7396 83.3594 24.7336V19.6163C83.3594 18.4791 83.1625 17.4732 82.7689 16.5984C82.419 15.6799 81.8504 14.9801 81.0631 14.499C80.3196 14.0179 79.3355 13.7773 78.1109 13.7773C77.2361 13.7773 76.3614 13.9086 75.4866 14.171C74.6119 14.3897 73.8902 14.7833 73.3216 15.3519C74.5462 15.7893 75.4866 16.4672 76.1427 17.3857C76.8425 18.2605 77.1924 19.2664 77.1924 20.4036C77.1924 21.8907 76.6675 23.0716 75.6178 23.9463C74.6119 24.8211 73.4091 25.2585 72.0095 25.2585C70.4349 25.2585 69.2321 24.7774 68.4011 23.8151C67.6138 22.8092 67.2202 21.6064 67.2202 20.2068C67.2202 18.9384 67.5264 17.8887 68.1387 17.0577C68.7948 16.2267 69.6914 15.4394 70.8286 14.6958C72.0532 13.996 73.5184 13.4493 75.2242 13.0557C76.9737 12.662 78.8544 12.4652 80.8663 12.4652C82.8782 12.4652 84.6934 12.6839 86.3116 13.1213C87.9299 13.5149 89.2858 14.2585 90.3792 15.3519C91.3852 16.3579 92.0413 17.6044 92.3474 19.0915C92.6536 20.5348 92.8067 22.3718 92.8067 24.6024V42.4474C92.8067 43.5408 92.916 44.3062 93.1347 44.7436C93.3534 45.1372 93.7252 45.334 94.25 45.334C94.6436 45.334 95.0154 45.2247 95.3653 45.006C95.759 44.7873 96.1745 44.5249 96.6118 44.2187L97.2679 45.334C96.3494 46.1213 95.2778 46.7337 94.0532 47.171C92.8723 47.5647 91.5383 47.7615 90.0512 47.7615C88.4329 47.7615 87.1427 47.5428 86.1804 47.1054C85.2182 46.6243 84.5184 45.9901 84.081 45.2028C83.6874 44.4156 83.4906 43.4971 83.4906 42.4474C82.4409 44.1094 81.1725 45.4215 79.6854 46.3837C78.1983 47.3022 76.3832 47.7615 74.2401 47.7615ZM78.8981 43.5627C79.7729 43.5627 80.5602 43.3659 81.26 42.9722C82.0035 42.5348 82.7033 41.835 83.3594 40.8728V27.4235C82.9657 28.0796 82.419 28.67 81.7192 29.1949C81.0194 29.7197 80.2759 30.2664 79.4886 30.835C78.7013 31.3599 77.9359 31.9503 77.1924 32.6064C76.4926 33.2625 75.924 34.0716 75.4866 35.0338C75.0492 35.9961 74.8305 37.1551 74.8305 38.511C74.8305 40.2167 75.2023 41.4851 75.9458 42.3161C76.6894 43.1472 77.6735 43.5627 78.8981 43.5627Z" fill="white"/>
<path d="M116.2 12.4652C117.906 12.4652 119.459 12.662 120.858 13.0557C122.302 13.4056 123.483 13.8648 124.401 14.4334C125.538 15.1332 126.413 16.008 127.025 17.0577C127.682 18.0636 128.01 19.2446 128.01 20.6004C128.01 22.1312 127.528 23.3996 126.566 24.4056C125.604 25.3678 124.357 25.8489 122.827 25.8489C121.296 25.8489 120.071 25.4116 119.153 24.5368C118.234 23.6621 117.775 22.4811 117.775 20.9941C117.775 19.5945 118.212 18.4354 119.087 17.5169C119.962 16.5547 120.968 15.9205 122.105 15.6143C121.755 15.177 121.23 14.8052 120.53 14.499C119.831 14.1929 119.043 14.0398 118.169 14.0398C116.813 14.0398 115.61 14.4334 114.56 15.2207C113.554 16.008 112.701 17.1014 112.002 18.501C111.302 19.9006 110.755 21.5408 110.361 23.4215C110.012 25.3022 109.837 27.3579 109.837 29.5885C109.837 32.9563 110.252 35.6024 111.083 37.5269C111.958 39.4513 113.051 40.8072 114.363 41.5945C115.719 42.3818 117.119 42.7754 118.562 42.7754C119.393 42.7754 120.29 42.6442 121.252 42.3818C122.258 42.1193 123.264 41.5945 124.27 40.8072C125.32 40.0199 126.282 38.9046 127.157 37.4613L128.272 37.8549C127.791 39.4732 127.004 41.0915 125.91 42.7098C124.817 44.3281 123.395 45.6621 121.646 46.7118C119.896 47.7177 117.753 48.2207 115.216 48.2207C112.373 48.2207 109.793 47.6084 107.475 46.3837C105.2 45.1154 103.363 43.1909 101.964 40.6104C100.608 37.9861 99.9301 34.6183 99.9301 30.507C99.9301 26.5706 100.63 23.2684 102.029 20.6004C103.473 17.8887 105.419 15.8549 107.868 14.499C110.318 13.1432 113.095 12.4652 116.2 12.4652Z" fill="white"/>
<path d="M148.616 12.4652C152.465 12.4652 155.483 13.6024 157.67 15.8768C159.857 18.1511 160.95 21.8688 160.95 27.0299H139.366L139.234 25.7833H152.684C152.727 23.6402 152.596 21.672 152.29 19.8788C151.984 18.0418 151.503 16.5766 150.847 15.4831C150.191 14.3897 149.316 13.843 148.222 13.843C146.692 13.843 145.38 14.8052 144.286 16.7296C143.236 18.6541 142.602 21.8469 142.384 26.3082L142.58 26.7018C142.537 27.2267 142.493 27.7734 142.449 28.342C142.449 28.9106 142.449 29.501 142.449 30.1134C142.449 33.1312 142.865 35.5806 143.696 37.4613C144.57 39.342 145.664 40.7197 146.976 41.5945C148.288 42.4255 149.622 42.841 150.978 42.841C151.896 42.841 152.837 42.7098 153.799 42.4474C154.805 42.1412 155.811 41.6163 156.817 40.8728C157.823 40.0855 158.763 38.9921 159.638 37.5925L160.819 37.9861C160.294 39.6482 159.463 41.2664 158.326 42.841C157.189 44.4156 155.745 45.7058 153.996 46.7118C152.246 47.7177 150.147 48.2207 147.698 48.2207C144.723 48.2207 142.099 47.5865 139.825 46.3181C137.551 45.0498 135.757 43.1253 134.445 40.5448C133.177 37.9643 132.543 34.6839 132.543 30.7038C132.543 26.6362 133.22 23.2465 134.576 20.5348C135.976 17.8231 137.879 15.8112 140.284 14.499C142.733 13.1432 145.511 12.4652 148.616 12.4652Z" fill="white"/>
<path d="M196.062 13.3837V14.6958C195.231 14.9145 194.443 15.4394 193.7 16.2704C192.956 17.0577 192.235 18.4135 191.535 20.338L182.284 46.3181L179.857 50.9106L165.555 18.4354C164.811 16.7296 164.068 15.7018 163.324 15.3519C162.624 14.9583 162.012 14.7614 161.487 14.7614V13.3837C162.931 13.5149 164.418 13.6243 165.948 13.7117C167.523 13.7555 169.032 13.7773 170.475 13.7773C172.269 13.7773 173.909 13.7336 175.396 13.6461C176.883 13.5587 178.282 13.4712 179.595 13.3837V14.7614C178.72 14.7614 177.889 14.8271 177.102 14.9583C176.358 15.0457 175.833 15.3519 175.527 15.8768C175.265 16.3579 175.396 17.2108 175.921 18.4354L184.187 38.3798L183.597 38.7734L188.451 25.1929C189.282 22.831 189.632 20.9066 189.501 19.4195C189.37 17.8887 188.889 16.7515 188.058 16.008C187.227 15.2207 186.09 14.7833 184.646 14.6958V13.3837C185.346 13.4274 186.068 13.4712 186.811 13.5149C187.555 13.5149 188.298 13.5368 189.042 13.5805C189.785 13.5805 190.441 13.5805 191.01 13.5805C191.885 13.5805 192.803 13.5587 193.766 13.5149C194.728 13.4712 195.493 13.4274 196.062 13.3837ZM182.284 46.3181L179.791 53.338C179.354 54.4315 178.895 55.35 178.414 56.0935C177.976 56.8808 177.473 57.515 176.905 57.9961C176.292 58.5209 175.505 58.9146 174.543 59.177C173.581 59.4832 172.465 59.6363 171.197 59.6363C170.147 59.6363 169.054 59.4613 167.917 59.1114C166.823 58.7615 165.905 58.1929 165.161 57.4056C164.418 56.6184 164.046 55.6124 164.046 54.3877C164.046 53.0319 164.527 51.9384 165.489 51.1074C166.451 50.3201 167.72 49.9265 169.294 49.9265C170.738 49.9265 171.919 50.2764 172.837 50.9762C173.756 51.676 174.215 52.7038 174.215 54.0597C174.215 54.9345 173.931 55.7655 173.362 56.5527C172.837 57.34 172.028 57.9305 170.935 58.3241C171.153 58.3679 171.416 58.3897 171.722 58.3897C172.028 58.3897 172.269 58.3897 172.443 58.3897C173.756 58.3897 174.915 57.9742 175.921 57.1432C176.927 56.3122 177.758 55.0001 178.414 53.2068L180.71 46.4494L182.284 46.3181Z" fill="white"/>
<path d="M15.5745 76.4034C16.9756 76.4034 18.1073 76.5112 18.9696 76.7267C19.8318 76.9064 20.5684 77.1758 21.1791 77.5351C21.754 77.7866 22.2749 78.1099 22.742 78.5051C23.2449 78.9003 23.6581 79.3853 23.9814 79.9602C24.3048 80.535 24.4665 81.1817 24.4665 81.9003C24.4665 82.9781 24.0533 83.8403 23.227 84.487C22.4006 85.1337 21.4306 85.4571 20.3169 85.4571C19.239 85.4571 18.3049 85.1876 17.5145 84.6487C16.7601 84.1098 16.3828 83.2655 16.3828 82.1158C16.3828 81.2176 16.7062 80.4093 17.3529 79.6907C17.9996 78.9363 18.8259 78.4692 19.8318 78.2896C19.5804 78.0021 19.1133 77.7686 18.4307 77.589C17.784 77.4093 17.0654 77.3195 16.2751 77.3195C14.4068 77.3195 12.8081 77.9123 11.4788 79.0979C10.1854 80.2476 9.53869 82.008 9.53869 84.3792C9.53869 85.2056 9.6824 86.0858 9.96981 87.0199C10.2572 87.954 10.8141 88.9061 11.6404 89.8761C12.2512 89.7324 12.8081 89.6246 13.3111 89.5528C13.85 89.4809 14.2991 89.445 14.6583 89.445C15.305 89.445 15.79 89.5887 16.1134 89.8761C16.4726 90.1276 16.6523 90.4689 16.6523 90.9001C16.6523 91.2234 16.5086 91.4929 16.2212 91.7084C15.9337 91.924 15.5745 92.0318 15.1433 92.0318C14.5326 92.0318 13.9038 91.8701 13.2572 91.5467C12.6105 91.1875 12.0895 90.8821 11.6943 90.6306C10.0057 91.4929 8.62254 92.6066 7.54473 93.9718C6.50283 95.3012 5.98189 97.0975 5.98189 99.361C5.98189 101.732 6.62858 103.69 7.92196 105.235C9.21534 106.744 11.0297 107.894 13.3649 108.684C15.7361 109.439 18.5205 109.816 21.718 109.816C23.5144 109.816 25.2928 109.618 27.0532 109.223C28.8137 108.828 30.3945 108.235 31.7956 107.445C33.2327 106.654 34.3824 105.684 35.2446 104.534C36.1069 103.349 36.538 101.984 36.538 100.439C36.538 99.8639 36.4482 99.1454 36.2686 98.2831C36.1249 97.3849 35.7476 96.5047 35.1369 95.6425C34.5261 94.7443 33.5201 94.0078 32.119 93.4329L32.4962 92.9479C34.4363 93.5587 35.9093 94.7084 36.9153 96.3969C37.9212 98.0855 38.4242 100.026 38.4242 102.217C38.4242 104.732 37.6518 106.996 36.1069 109.007C34.562 110.983 32.3884 112.546 29.5861 113.696C26.8197 114.846 23.5683 115.42 19.8318 115.42C16.8499 115.42 14.1374 115.115 11.6943 114.504C9.2872 113.894 7.20342 113.013 5.44298 111.864C3.71847 110.678 2.3712 109.259 1.40116 107.606C0.467054 105.954 0 104.085 0 102.002C0 99.9897 0.413164 98.2831 1.23949 96.882C2.10174 95.4449 3.14364 94.2772 4.36516 93.379C5.58669 92.4449 6.80822 91.7264 8.02974 91.2234C9.25127 90.7204 10.2213 90.3791 10.9399 90.1995C9.82611 89.7324 8.80218 89.1935 7.86807 88.5827C6.96989 87.9361 6.23338 87.1816 5.65854 86.3193C5.11964 85.4571 4.85018 84.487 4.85018 83.4092C4.85018 82.2595 5.15556 81.2536 5.76633 80.3913C6.37709 79.4931 7.18545 78.7566 8.19142 78.1818C9.23331 77.6069 10.383 77.1758 11.6404 76.8884C12.9338 76.565 14.2452 76.4034 15.5745 76.4034ZM36.7536 75.7567C39.3044 75.7567 41.3702 76.4213 42.951 77.7507C44.5318 79.08 45.3222 80.9482 45.3222 83.3553C45.3222 85.1876 44.8732 86.7325 43.975 87.9899C43.1127 89.2474 41.8553 90.2713 40.2026 91.0617C38.5859 91.8521 36.6458 92.4809 34.3824 92.9479C33.8794 93.1276 33.2507 93.3431 32.4962 93.5946C31.7417 93.8102 30.9693 94.0257 30.1789 94.2413C29.3885 94.4569 28.6161 94.6724 27.8616 94.888C27.143 95.1036 26.5143 95.2832 25.9754 95.4269C23.1731 96.0377 21.0174 96.7383 19.5085 97.5287C17.9996 98.2831 17.2451 99.325 17.2451 100.654C17.2451 101.553 17.5325 102.325 18.1073 102.972C18.7181 103.618 19.4726 104.121 20.3708 104.481C21.2689 104.84 22.1671 105.019 23.0653 105.019C23.3168 105.019 23.5862 105.002 23.8737 104.966C24.1611 104.894 24.4305 104.822 24.682 104.75C24.9335 104.642 25.1132 104.552 25.2209 104.481C24.3228 104.193 23.6401 103.744 23.1731 103.133C22.742 102.487 22.5264 101.75 22.5264 100.924C22.5264 99.7741 22.9396 98.8939 23.7659 98.2831C24.5922 97.6724 25.6161 97.367 26.8377 97.367C28.131 97.367 29.137 97.7083 29.8556 98.3909C30.61 99.0735 30.9873 99.9537 30.9873 101.032C30.9873 102.145 30.646 103.079 29.9633 103.834C29.2807 104.552 28.3646 105.091 27.2149 105.451C26.0652 105.774 24.7718 105.936 23.3348 105.936C21.9336 105.936 20.6043 105.684 19.3468 105.181C18.1253 104.678 17.1373 103.924 16.3828 102.918C15.6643 101.876 15.305 100.582 15.305 99.0376C15.305 97.1335 15.79 95.5526 16.7601 94.2952C17.7301 93.0018 19.1133 91.942 20.9097 91.1156C22.742 90.2534 24.8976 89.5887 27.3766 89.1217C28.131 88.942 28.9574 88.7444 29.8556 88.5289C30.7897 88.2774 31.7417 88.0259 32.7118 87.7744C33.6818 87.5229 34.58 87.2534 35.4063 86.966C37.9931 86.3193 39.987 85.6008 41.3882 84.8104C42.8253 84.02 43.5438 82.9601 43.5438 81.6308C43.5438 80.6608 43.2385 79.8165 42.6277 79.0979C42.0529 78.3435 41.2984 77.7686 40.3643 77.3734C39.4302 76.9423 38.4601 76.7267 37.4542 76.7267C37.1308 76.7267 36.8254 76.7447 36.538 76.7806C36.2865 76.8165 36.071 76.8884 35.8913 76.9962C36.7895 77.3195 37.4542 77.8045 37.8853 78.4512C38.3164 79.0979 38.532 79.7446 38.532 80.3913C38.532 81.5051 38.1188 82.3673 37.2925 82.9781C36.4662 83.5529 35.4422 83.8403 34.2207 83.8403C32.9992 83.8403 31.9932 83.535 31.2028 82.9242C30.4124 82.2775 30.0172 81.3973 30.0172 80.2835C30.0172 79.3135 30.2867 78.5051 30.8256 77.8584C31.4004 77.1758 32.1908 76.6549 33.1968 76.2956C34.2028 75.9363 35.3884 75.7567 36.7536 75.7567Z" fill="white"/>
<path d="M60.0115 127V125.688C61.761 125.513 63.2481 124.988 64.4728 124.113C65.6974 123.282 66.6378 121.839 67.2938 119.783C67.9499 117.728 68.2779 114.841 68.2779 111.123V75.1709C68.2779 73.5526 68.1467 72.3717 67.8843 71.6282C67.6656 70.8409 67.2064 70.316 66.5066 70.0536C65.8068 69.7475 64.7571 69.5725 63.3575 69.5288V68.2166C64.4509 68.2604 65.8724 68.3041 67.6219 68.3478C69.4151 68.3916 71.2958 68.4135 73.264 68.4135C75.2322 68.4135 77.1348 68.3916 78.9718 68.3478C80.8525 68.3041 82.4052 68.2604 83.6298 68.2166V69.5288C82.2739 69.5725 81.2242 69.7475 80.4807 70.0536C79.7809 70.316 79.2998 70.8409 79.0374 71.6282C78.8187 72.3717 78.7093 73.5526 78.7093 75.1709V99.1829C78.7093 100.976 78.7093 102.922 78.7093 105.022C78.7093 107.078 78.6219 109.089 78.4469 111.058C78.3157 113.026 78.0314 114.775 77.594 116.306C76.7193 119.324 74.8167 121.861 71.8863 123.917C68.9996 125.972 65.0414 127 60.0115 127Z" fill="white"/>
<path d="M102.702 79.829C105.895 79.829 108.694 80.4194 111.099 81.6003C113.505 82.7813 115.386 84.6839 116.742 87.3081C118.097 89.9324 118.775 93.4095 118.775 97.7395C118.775 102.07 118.097 105.547 116.742 108.171C115.386 110.751 113.505 112.632 111.099 113.813C108.694 114.994 105.895 115.584 102.702 115.584C99.5964 115.584 96.8191 114.994 94.3698 113.813C91.9642 112.632 90.0616 110.751 88.662 108.171C87.3061 105.547 86.6282 102.07 86.6282 97.7395C86.6282 93.4095 87.3061 89.9324 88.662 87.3081C90.0616 84.6839 91.9642 82.7813 94.3698 81.6003C96.8191 80.4194 99.5964 79.829 102.702 79.829ZM102.702 81.1411C100.952 81.1411 99.487 82.4532 98.3061 85.0775C97.1252 87.658 96.5348 91.8787 96.5348 97.7395C96.5348 103.6 97.1252 107.821 98.3061 110.402C99.487 112.982 100.952 114.272 102.702 114.272C104.495 114.272 105.96 112.982 107.097 110.402C108.278 107.821 108.869 103.6 108.869 97.7395C108.869 91.8787 108.278 87.658 107.097 85.0775C105.96 82.4532 104.495 81.1411 102.702 81.1411Z" fill="white"/>
<path d="M135.548 63.3618V85.9304C136.642 83.656 138.107 82.0815 139.944 81.2067C141.825 80.2882 143.924 79.829 146.242 79.829C148.123 79.829 149.632 80.0695 150.769 80.5506C151.906 80.988 152.803 81.6003 153.459 82.3876C154.203 83.2186 154.727 84.2902 155.034 85.6023C155.383 86.9145 155.558 88.6858 155.558 90.9165V108.565C155.558 110.402 155.865 111.648 156.477 112.304C157.133 112.96 158.226 113.288 159.757 113.288V114.666C158.926 114.622 157.658 114.579 155.952 114.535C154.29 114.447 152.672 114.404 151.097 114.404C149.391 114.404 147.729 114.447 146.111 114.535C144.537 114.579 143.356 114.622 142.568 114.666V113.288C143.88 113.288 144.799 112.96 145.324 112.304C145.849 111.648 146.111 110.402 146.111 108.565V88.161C146.111 87.0675 146.002 86.1272 145.783 85.3399C145.564 84.5089 145.149 83.8747 144.537 83.4373C143.968 82.9562 143.137 82.7157 142.044 82.7157C140.863 82.7157 139.769 83.0437 138.763 83.6998C137.801 84.3121 137.014 85.1868 136.401 86.324C135.833 87.4612 135.548 88.7733 135.548 90.2604V108.565C135.548 110.402 135.811 111.648 136.336 112.304C136.861 112.96 137.779 113.288 139.091 113.288V114.666C138.304 114.622 137.145 114.579 135.614 114.535C134.083 114.447 132.531 114.404 130.956 114.404C129.25 114.404 127.523 114.447 125.773 114.535C124.067 114.579 122.777 114.622 121.902 114.666V113.288C123.433 113.288 124.505 112.96 125.117 112.304C125.773 111.648 126.101 110.402 126.101 108.565V71.2345C126.101 69.2663 125.795 67.823 125.183 66.9045C124.614 65.9423 123.521 65.4612 121.902 65.4612V64.0834C123.302 64.2146 124.658 64.2802 125.97 64.2802C127.763 64.2802 129.469 64.2146 131.087 64.0834C132.706 63.9085 134.193 63.6679 135.548 63.3618Z" fill="white"/>
<path d="M186.551 79.829C188.388 79.829 189.875 80.0695 191.012 80.5506C192.193 80.988 193.111 81.6003 193.767 82.3876C194.467 83.2186 194.97 84.2902 195.276 85.6023C195.626 86.9145 195.801 88.6858 195.801 90.9165V108.565C195.801 110.402 196.107 111.648 196.72 112.304C197.376 112.96 198.469 113.288 200 113.288V114.666C199.169 114.622 197.922 114.579 196.26 114.535C194.598 114.447 192.958 114.404 191.34 114.404C189.678 114.404 188.038 114.447 186.419 114.535C184.845 114.579 183.642 114.622 182.811 114.666V113.288C184.123 113.288 185.042 112.96 185.567 112.304C186.091 111.648 186.354 110.402 186.354 108.565V88.161C186.354 87.0675 186.245 86.1272 186.026 85.3399C185.807 84.5089 185.414 83.8747 184.845 83.4373C184.276 82.9562 183.423 82.7157 182.286 82.7157C181.105 82.7157 180.012 83.0437 179.006 83.6998C178.044 84.3558 177.256 85.2743 176.644 86.4552C176.076 87.5924 175.791 88.8827 175.791 90.326V108.565C175.791 110.402 176.054 111.648 176.579 112.304C177.147 112.96 178.066 113.288 179.334 113.288V114.666C178.547 114.622 177.388 114.579 175.857 114.535C174.37 114.447 172.817 114.404 171.199 114.404C169.537 114.404 167.831 114.447 166.082 114.535C164.332 114.579 163.02 114.622 162.145 114.666V113.288C163.676 113.288 164.748 112.96 165.36 112.304C166.016 111.648 166.344 110.402 166.344 108.565V87.8986C166.344 85.9304 166.038 84.487 165.425 83.5685C164.857 82.6063 163.763 82.1252 162.145 82.1252V80.7475C163.545 80.8787 164.901 80.9443 166.213 80.9443C168.05 80.9443 169.756 80.8787 171.33 80.7475C172.948 80.5725 174.435 80.332 175.791 80.0258V85.9304C176.885 83.6998 178.372 82.1252 180.253 81.2067C182.133 80.2882 184.233 79.829 186.551 79.829Z" fill="white"/>
</svg>
