<svg width="460" height="234" viewBox="0 0 460 234" fill="none" xmlns="http://www.w3.org/2000/svg">
<path d="M325.729 68.7308C326.083 65.1706 328.944 62.3797 332.512 62.1145L349.499 60.8519C354.133 60.5075 358.084 64.1718 358.09 68.819V68.819C358.094 73.2398 354.512 76.8261 350.091 76.8259L333.058 76.8252C328.702 76.825 325.298 73.0653 325.729 68.7308V68.7308Z" fill="#FFD600"/>
<path d="M237.124 74.1617C236.038 71.7041 237.664 68.902 240.337 68.6255L288.676 63.6228C292.287 63.2491 295.493 65.9335 295.76 69.5542V69.5542C296.034 73.2835 293.085 76.4615 289.346 76.4657L240.748 76.5203C239.179 76.522 237.758 75.5968 237.124 74.1617V74.1617Z" fill="#FFD600"/>
<path d="M74.7732 120.96C70.2577 120.96 68 119.962 68 117.966V29.5011C68 26.7791 69.6042 25.4181 72.8126 25.4181H99.1926C106.916 25.4181 113.333 26.2347 118.443 27.8679C123.671 29.5011 127.533 32.087 130.029 35.6256C132.643 39.1642 133.95 43.7916 133.95 49.5078C133.95 55.4054 132.405 60.2597 129.316 64.0705C126.345 67.7905 122.424 70.6033 117.552 72.5087V73.0531C120.166 73.9604 122.364 75.9112 124.147 78.9054C126.048 81.8995 127.949 85.6196 129.85 90.0655L141.08 116.877C141.199 117.24 141.317 117.603 141.436 117.966C141.555 118.329 141.614 118.601 141.614 118.783C141.614 120.234 139.297 120.96 134.663 120.96H131.633C129.969 120.96 128.484 120.779 127.177 120.416C125.988 120.053 125.275 119.508 125.038 118.783L114.343 92.107C112.204 86.8445 109.768 83.3059 107.035 81.4912C104.421 79.6766 100.5 78.7692 95.2712 78.7692H84.0419V117.966C84.0419 119.962 81.7841 120.96 77.2686 120.96H74.7732ZM83.8636 68.4257H101.866C104.718 68.4257 107.273 67.6544 109.531 66.112C111.907 64.5695 113.808 62.528 115.234 59.9875C116.66 57.4469 117.373 54.6796 117.373 51.6854C117.373 46.1506 115.829 42.113 112.739 39.5725C109.768 37.032 105.788 35.7617 100.797 35.7617H83.8636V68.4257Z" fill="#FFD600"/>
<path d="M163.89 120.96C161.57 120.96 159.888 120.689 158.844 120.146C157.799 119.603 157.277 118.879 157.277 117.975V28.4038C157.277 27.499 157.799 26.7752 158.844 26.2324C159.888 25.6895 161.57 25.4181 163.89 25.4181H166.501C170.794 25.4181 172.94 26.4133 172.94 28.4038V117.975C172.94 119.965 170.794 120.96 166.501 120.96H163.89Z" fill="#FFD600"/>
<path d="M241.218 119.394C225.946 119.394 214.635 115.61 207.285 108.043C200.051 100.388 196.434 88.5086 196.434 72.406C196.434 56.3914 200.166 44.5564 207.63 36.9011C215.094 29.2458 226.348 25.4181 241.391 25.4181C244.606 25.4181 247.764 25.6821 250.864 26.21C253.965 26.65 256.606 27.2219 258.788 27.9259C259.936 28.2778 260.682 28.7178 261.027 29.2458C261.486 29.7737 261.716 30.5217 261.716 31.4896C261.716 32.0175 261.544 32.9854 261.199 34.3933C260.855 35.7132 260.281 36.9011 259.477 37.957C258.673 38.9249 257.639 39.1009 256.376 38.485C254.654 37.869 252.529 37.2531 250.003 36.6371C247.592 36.0212 244.721 35.7132 241.391 35.7132C231.515 35.7132 224.223 38.6609 219.515 44.5564C214.807 50.3639 212.453 59.6031 212.453 72.274C212.453 84.8569 214.807 94.1401 219.515 100.124C224.223 106.107 231.458 109.099 241.218 109.099C244.778 109.099 247.879 108.791 250.52 108.175C253.161 107.471 255.458 106.679 257.41 105.799C258.903 105.271 260.108 105.403 261.027 106.195C261.946 106.987 262.635 107.999 263.094 109.231C263.553 110.463 263.783 111.475 263.783 112.267C263.783 113.059 263.496 113.85 262.922 114.642C262.462 115.346 261.371 116.006 259.649 116.622C257.927 117.238 255.4 117.854 252.07 118.47C248.855 119.086 245.237 119.394 241.218 119.394Z" fill="#FFD600"/>
<path d="M335.874 138C315.587 138 299.994 132.315 289.096 120.944C278.365 109.573 273 92.1292 273 68.6124C273 45.0955 278.365 27.7809 289.096 16.6685C299.994 5.55618 315.587 0 335.874 0C356.162 0 371.755 5.55618 382.653 16.6685C393.551 27.7809 399 45.0955 399 68.6124C399 92.1292 393.551 109.573 382.653 120.944C371.755 132.315 356.162 138 335.874 138ZM336.126 123.27C344.677 123.27 351.886 121.331 357.755 117.455C363.79 113.449 368.317 107.441 371.335 99.4298C374.353 91.2893 375.862 81.0169 375.862 68.6124C375.862 56.2079 374.353 46.0646 371.335 38.1826C368.317 30.1713 363.79 24.2921 357.755 20.5449C351.886 16.6685 344.677 14.7303 336.126 14.7303C327.575 14.7303 320.281 16.6685 314.246 20.5449C308.377 24.2921 303.934 30.1713 300.916 38.1826C297.898 46.0646 296.389 56.2079 296.389 68.6124C296.389 81.0169 297.898 91.2893 300.916 99.4298C303.934 107.441 308.377 113.449 314.246 117.455C320.281 121.331 327.575 123.27 336.126 123.27Z" fill="#FFD600"/>
<line y1="165.5" x2="460" y2="165.5" stroke="#FFD600" stroke-width="5"/>
<path d="M2.35503 233.748C0.785011 233.748 0 233.328 0 232.487V200.017C0 199.445 0.136524 199.025 0.409571 198.756C0.682618 198.487 1.10925 198.353 1.68948 198.353H12.1847C15.2565 198.353 17.9699 199.076 20.325 200.521C22.68 201.966 23.8575 204.655 23.8575 208.588C23.8575 211.412 23.1749 213.613 21.8096 215.193C20.4785 216.739 18.9597 217.782 17.2532 218.319C15.5808 218.857 14.0619 219.126 12.6967 219.126H5.47801V232.487C5.47801 233.328 4.71006 233.748 3.17417 233.748H2.35503ZM12.4919 214.487C13.8913 214.487 15.1883 214.05 16.3828 213.176C17.5774 212.303 18.1747 210.773 18.1747 208.588C18.1747 206.504 17.5603 205.059 16.3316 204.252C15.1371 203.412 13.6865 202.992 11.9799 202.992H5.47801V214.487H12.4919Z" fill="#FFD600"/>
<path d="M30.4778 233.647C29.8976 233.647 29.471 233.513 29.1979 233.244C28.9249 232.975 28.7883 232.555 28.7883 231.983V200.017C28.7883 199.445 28.9249 199.025 29.1979 198.756C29.471 198.487 29.8976 198.353 30.4778 198.353H48.3454C48.7549 198.353 49.045 198.504 49.2157 198.807C49.4205 199.076 49.5229 199.529 49.5229 200.168V201.176C49.5229 201.815 49.4205 202.286 49.2157 202.588C49.045 202.857 48.7549 202.992 48.3454 202.992H34.2664V213.277H46.8607C47.2702 213.277 47.5603 213.429 47.731 213.731C47.9358 214 48.0382 214.454 48.0382 215.092V216.101C48.0382 216.739 47.9358 217.21 47.731 217.513C47.5603 217.782 47.2702 217.916 46.8607 217.916H34.2664V229.008H48.3965C48.8061 229.008 49.0962 229.16 49.2669 229.462C49.4717 229.731 49.5741 230.185 49.5741 230.824V231.832C49.5741 232.471 49.4717 232.941 49.2669 233.244C49.0962 233.513 48.8061 233.647 48.3965 233.647H30.4778Z" fill="#FFD600"/>
<path d="M57.9139 233.748C56.3438 233.748 55.5588 233.328 55.5588 232.487V200.017C55.5588 199.445 55.6954 199.025 55.9684 198.756C56.2415 198.487 56.6681 198.353 57.2483 198.353H66.2589C70.4228 198.353 73.5288 199.092 75.5766 200.571C77.6586 202.05 78.6996 204.336 78.6996 207.429C78.6996 209.479 78.1706 211.21 77.1125 212.622C76.0544 214.034 74.6039 215.092 72.7608 215.798V216C73.6482 216.303 74.4332 216.941 75.1158 217.916C75.7985 218.891 76.464 220.202 77.1125 221.849L81.2594 232.084C81.3959 232.555 81.4642 232.824 81.4642 232.891C81.4642 233.462 80.645 233.748 79.0068 233.748H78.034C77.4538 233.748 76.9589 233.681 76.5493 233.546C76.1398 233.378 75.8667 233.16 75.7302 232.891L71.7881 223.008C71.1055 221.328 70.2693 220.185 69.2795 219.58C68.2897 218.941 66.822 218.622 64.8766 218.622H61.0368V232.487C61.0368 233.328 60.2518 233.748 58.6818 233.748H57.9139ZM67.2316 213.933C68.8358 213.933 70.201 213.378 71.3273 212.269C72.4878 211.16 73.068 209.832 73.068 208.286C73.068 206.538 72.5048 205.227 71.3785 204.353C70.2863 203.445 68.7846 202.992 66.8732 202.992H61.0368V213.933H67.2316Z" fill="#FFD600"/>
<path d="M93.9229 234C91.7726 234 89.8101 233.765 88.0353 233.294C86.2605 232.79 84.9123 232.202 83.9908 231.529C83.2741 231.025 82.9157 230.538 82.9157 230.067C82.9157 229.563 83.1887 228.908 83.7348 228.101C84.2809 227.261 84.7246 226.84 85.0659 226.84C85.3048 226.84 85.6973 227.025 86.2434 227.395C87.3698 227.966 88.479 228.437 89.5712 228.807C90.6975 229.176 92.0116 229.361 93.5133 229.361C95.2881 229.361 96.7558 228.908 97.9162 228C99.1108 227.059 99.7081 225.765 99.7081 224.118C99.7081 223.042 99.418 222.151 98.8377 221.445C98.2575 220.706 97.5237 220.118 96.6363 219.681C95.783 219.21 94.5885 218.655 93.0526 218.017L91.9262 217.563C90.1514 216.857 88.7009 216.151 87.5745 215.445C86.4482 214.739 85.4926 213.765 84.7076 212.521C83.9567 211.244 83.5812 209.597 83.5812 207.58C83.5812 205.63 84.0761 203.933 85.0659 202.487C86.0899 201.042 87.4722 199.933 89.2128 199.16C90.9535 198.387 92.9331 198 95.1516 198C96.4827 198 97.848 198.168 99.2473 198.504C100.681 198.84 101.807 199.277 102.626 199.815C103.343 200.252 103.701 200.723 103.701 201.227C103.701 201.697 103.445 202.353 102.933 203.193C102.456 204 102.046 204.403 101.705 204.403C101.534 204.403 101.039 204.202 100.22 203.798C98.65 203.059 97.0117 202.689 95.3052 202.689C93.3939 202.689 91.8921 203.126 90.7999 204C89.7419 204.874 89.2128 206.05 89.2128 207.529C89.2128 208.605 89.4859 209.479 90.032 210.151C90.6122 210.824 91.2948 211.345 92.0798 211.714C92.8648 212.084 94.0936 212.588 95.766 213.227C97.7797 214 99.418 214.756 100.681 215.496C101.978 216.202 103.07 217.244 103.957 218.622C104.879 219.966 105.34 221.697 105.34 223.815C105.34 227.076 104.282 229.597 102.166 231.378C100.049 233.126 97.3019 234 93.9229 234Z" fill="#FFD600"/>
<path d="M124.487 234C119.333 234 115.391 232.454 112.661 229.361C109.93 226.269 108.565 221.798 108.565 215.95C108.565 210.067 109.93 205.613 112.661 202.588C115.391 199.529 119.333 198 124.487 198C129.709 198 133.668 199.529 136.365 202.588C139.095 205.613 140.46 210.067 140.46 215.95C140.46 221.832 139.095 226.319 136.365 229.412C133.634 232.471 129.675 234 124.487 234ZM124.487 229.361C127.832 229.361 130.392 228.218 132.167 225.933C133.941 223.647 134.829 220.319 134.829 215.95C134.829 211.58 133.941 208.286 132.167 206.067C130.426 203.815 127.866 202.689 124.487 202.689C121.108 202.689 118.548 203.815 116.808 206.067C115.067 208.286 114.197 211.58 114.197 215.95C114.197 220.319 115.067 223.647 116.808 225.933C118.582 228.218 121.142 229.361 124.487 229.361Z" fill="#FFD600"/>
<path d="M148.879 233.748C147.309 233.748 146.524 233.328 146.524 232.487V199.513C146.524 198.672 147.309 198.252 148.879 198.252H150.262C150.876 198.252 151.371 198.336 151.746 198.504C152.156 198.639 152.497 198.908 152.77 199.311L167.515 221.395C168.129 222.269 168.709 223.261 169.256 224.37L169.46 224.319C169.392 223.546 169.358 222.403 169.358 220.891V199.513C169.358 198.672 170.143 198.252 171.713 198.252H172.379C173.949 198.252 174.734 198.672 174.734 199.513V232.487C174.734 233.328 173.949 233.748 172.379 233.748H171.099C170.518 233.748 170.058 233.681 169.716 233.546C169.375 233.412 169.085 233.176 168.846 232.84L153.743 210.303C153.163 209.496 152.583 208.487 152.002 207.277L151.798 207.328C151.866 208.101 151.9 209.244 151.9 210.756V232.487C151.9 233.328 151.115 233.748 149.545 233.748H148.879Z" fill="#FFD600"/>
<path d="M180.915 233.748C179.277 233.748 178.458 233.445 178.458 232.84C178.458 232.639 178.509 232.37 178.612 232.034L190.489 199.109C190.694 198.538 191.462 198.252 192.793 198.252H194.585C195.916 198.252 196.684 198.538 196.889 199.109L208.766 232.084C208.869 232.387 208.92 232.639 208.92 232.84C208.92 233.445 208.152 233.748 206.616 233.748H205.695C204.398 233.748 203.63 233.462 203.391 232.891L200.677 225.227H186.496L183.834 232.891C183.595 233.462 182.878 233.748 181.683 233.748H180.915ZM199.039 220.588L194.38 207.277C194.244 206.807 194.107 206.252 193.971 205.613C193.868 204.975 193.783 204.521 193.715 204.252H193.612C193.339 205.664 193.083 206.672 192.844 207.277L188.134 220.588H199.039Z" fill="#FFD600"/>
<path d="M214.719 233.647C214.139 233.647 213.713 233.513 213.44 233.244C213.167 232.975 213.03 232.555 213.03 231.983V199.513C213.03 198.672 213.815 198.252 215.385 198.252H216.153C217.723 198.252 218.508 198.672 218.508 199.513V229.008H231.717C232.126 229.008 232.416 229.16 232.587 229.462C232.792 229.731 232.894 230.185 232.894 230.824V231.832C232.894 232.471 232.792 232.941 232.587 233.244C232.416 233.513 232.126 233.647 231.717 233.647H214.719Z" fill="#FFD600"/>
<path d="M257.141 233.748C255.571 233.748 254.786 233.328 254.786 232.487V202.992H245.417C245.008 202.992 244.718 202.857 244.547 202.588C244.376 202.286 244.291 201.815 244.291 201.176V200.168C244.291 199.529 244.376 199.076 244.547 198.807C244.718 198.504 245.008 198.353 245.417 198.353H269.531C269.94 198.353 270.23 198.504 270.401 198.807C270.572 199.076 270.657 199.529 270.657 200.168V201.176C270.657 201.815 270.572 202.286 270.401 202.588C270.23 202.857 269.94 202.992 269.531 202.992H260.264V232.487C260.264 233.328 259.479 233.748 257.909 233.748H257.141Z" fill="#FFD600"/>
<path d="M277.406 233.748C275.836 233.748 275.051 233.328 275.051 232.487V200.017C275.051 199.445 275.188 199.025 275.461 198.756C275.734 198.487 276.16 198.353 276.741 198.353H285.751C289.915 198.353 293.021 199.092 295.069 200.571C297.151 202.05 298.192 204.336 298.192 207.429C298.192 209.479 297.663 211.21 296.605 212.622C295.547 214.034 294.096 215.092 292.253 215.798V216C293.141 216.303 293.926 216.941 294.608 217.916C295.291 218.891 295.956 220.202 296.605 221.849L300.752 232.084C300.888 232.555 300.957 232.824 300.957 232.891C300.957 233.462 300.137 233.748 298.499 233.748H297.526C296.946 233.748 296.451 233.681 296.042 233.546C295.632 233.378 295.359 233.16 295.223 232.891L291.28 223.008C290.598 221.328 289.762 220.185 288.772 219.58C287.782 218.941 286.314 218.622 284.369 218.622H280.529V232.487C280.529 233.328 279.744 233.748 278.174 233.748H277.406ZM286.724 213.933C288.328 213.933 289.693 213.378 290.82 212.269C291.98 211.16 292.56 209.832 292.56 208.286C292.56 206.538 291.997 205.227 290.871 204.353C289.779 203.445 288.277 202.992 286.366 202.992H280.529V213.933H286.724Z" fill="#FFD600"/>
<path d="M303.637 233.748C301.998 233.748 301.179 233.445 301.179 232.84C301.179 232.639 301.231 232.37 301.333 232.034L313.21 199.109C313.415 198.538 314.183 198.252 315.514 198.252H317.306C318.637 198.252 319.405 198.538 319.61 199.109L331.488 232.084C331.59 232.387 331.641 232.639 331.641 232.84C331.641 233.445 330.873 233.748 329.337 233.748H328.416C327.119 233.748 326.351 233.462 326.112 232.891L323.399 225.227H309.217L306.555 232.891C306.316 233.462 305.599 233.748 304.405 233.748H303.637ZM321.76 220.588L317.101 207.277C316.965 206.807 316.828 206.252 316.692 205.613C316.589 204.975 316.504 204.521 316.436 204.252H316.333C316.06 205.664 315.804 206.672 315.566 207.277L310.855 220.588H321.76Z" fill="#FFD600"/>
<path d="M337.901 233.748C336.331 233.748 335.546 233.328 335.546 232.487V199.513C335.546 198.672 336.331 198.252 337.901 198.252H338.721C340.291 198.252 341.076 198.672 341.076 199.513V232.487C341.076 233.328 340.291 233.748 338.721 233.748H337.901Z" fill="#FFD600"/>
<path d="M351.223 233.748C349.653 233.748 348.868 233.328 348.868 232.487V199.513C348.868 198.672 349.653 198.252 351.223 198.252H352.605C353.22 198.252 353.715 198.336 354.09 198.504C354.5 198.639 354.841 198.908 355.114 199.311L369.858 221.395C370.473 222.269 371.053 223.261 371.599 224.37L371.804 224.319C371.736 223.546 371.701 222.403 371.701 220.891V199.513C371.701 198.672 372.487 198.252 374.057 198.252H374.722C376.292 198.252 377.077 198.672 377.077 199.513V232.487C377.077 233.328 376.292 233.748 374.722 233.748H373.442C372.862 233.748 372.401 233.681 372.06 233.546C371.719 233.412 371.428 233.176 371.19 232.84L356.087 210.303C355.506 209.496 354.926 208.487 354.346 207.277L354.141 207.328C354.209 208.101 354.244 209.244 354.244 210.756V232.487C354.244 233.328 353.459 233.748 351.889 233.748H351.223Z" fill="#FFD600"/>
<path d="M387.15 233.748C385.58 233.748 384.795 233.328 384.795 232.487V199.513C384.795 198.672 385.58 198.252 387.15 198.252H387.969C389.539 198.252 390.324 198.672 390.324 199.513V232.487C390.324 233.328 389.539 233.748 387.969 233.748H387.15Z" fill="#FFD600"/>
<path d="M400.471 233.748C398.901 233.748 398.116 233.328 398.116 232.487V199.513C398.116 198.672 398.901 198.252 400.471 198.252H401.854C402.468 198.252 402.963 198.336 403.338 198.504C403.748 198.639 404.089 198.908 404.362 199.311L419.107 221.395C419.721 222.269 420.301 223.261 420.848 224.37L421.052 224.319C420.984 223.546 420.95 222.403 420.95 220.891V199.513C420.95 198.672 421.735 198.252 423.305 198.252H423.971C425.541 198.252 426.326 198.672 426.326 199.513V232.487C426.326 233.328 425.541 233.748 423.971 233.748H422.691C422.11 233.748 421.65 233.681 421.308 233.546C420.967 233.412 420.677 233.176 420.438 232.84L405.335 210.303C404.755 209.496 404.175 208.487 403.594 207.277L403.39 207.328C403.458 208.101 403.492 209.244 403.492 210.756V232.487C403.492 233.328 402.707 233.748 401.137 233.748H400.471Z" fill="#FFD600"/>
<path d="M458.311 215.042C458.891 215.042 459.317 215.176 459.59 215.445C459.863 215.714 460 216.134 460 216.706V230.269C460 231.613 458.857 232.571 456.57 233.143C454.317 233.714 451.604 234 448.43 234C437.713 234 432.354 228.067 432.354 216.202C432.354 204.067 437.917 198 449.044 198C450.648 198 452.235 198.168 453.805 198.504C455.375 198.807 456.655 199.21 457.645 199.714C458.669 200.218 459.181 200.739 459.181 201.277C459.181 201.815 458.908 202.521 458.362 203.395C457.85 204.269 457.389 204.706 456.979 204.706C456.877 204.706 456.45 204.521 455.7 204.151C454.949 203.782 454.01 203.445 452.884 203.143C451.792 202.84 450.529 202.689 449.095 202.689C445.136 202.689 442.286 203.798 440.545 206.017C438.839 208.202 437.986 211.496 437.986 215.899C437.986 220.101 438.805 223.395 440.443 225.782C442.081 228.168 444.829 229.361 448.686 229.361C450.836 229.361 452.781 229.16 454.522 228.756V219.681H448.942C448.532 219.681 448.225 219.546 448.02 219.277C447.849 218.975 447.764 218.504 447.764 217.866V216.857C447.764 216.218 447.849 215.765 448.02 215.496C448.225 215.193 448.532 215.042 448.942 215.042H458.311Z" fill="#FFD600"/>
</svg>
