<svg width="343" height="218" viewBox="0 0 343 218" fill="none" xmlns="http://www.w3.org/2000/svg">
<path d="M36.5502 0.247998C40.9555 0.247998 44.3529 0.733332 46.7422 1.704C49.1315 2.6 51.1849 3.57066 52.9022 4.616C53.7982 5.13866 54.5075 5.54933 55.0302 5.848C55.6275 6.072 56.1875 6.184 56.7102 6.184C57.4569 6.184 57.9795 5.77333 58.2782 4.952C58.6515 4.13066 58.9502 2.89866 59.1742 1.256H61.7502C61.6755 2.67466 61.5635 4.392 61.4142 6.408C61.3395 8.34933 61.2649 10.9253 61.1902 14.136C61.1902 17.3467 61.1902 21.5653 61.1902 26.792H58.6142C58.3155 22.9093 57.4195 19.1387 55.9262 15.48C54.4329 11.8213 52.3049 8.83467 49.5422 6.52C46.8542 4.13066 43.5315 2.936 39.5742 2.936C35.9902 2.936 33.0409 3.944 30.7262 5.96C28.4115 7.976 27.2542 10.776 27.2542 14.36C27.2542 17.3467 28.0009 19.9227 29.4942 22.088C30.9875 24.1787 33.1529 26.232 35.9902 28.248C38.9022 30.264 42.4115 32.6907 46.5182 35.528C50.1022 37.8427 53.3129 40.1573 56.1502 42.472C58.9875 44.7867 61.2649 47.4 62.9822 50.312C64.6995 53.224 65.5582 56.696 65.5582 60.728C65.5582 65.656 64.2515 69.7253 61.6382 72.936C59.0995 76.1467 55.7395 78.5733 51.5582 80.216C47.3769 81.784 42.7849 82.568 37.7822 82.568C33.1529 82.568 29.4569 82.12 26.6942 81.224C23.9315 80.328 21.6169 79.3947 19.7502 78.424C18.1075 77.3787 16.8382 76.856 15.9422 76.856C15.1955 76.856 14.6355 77.2667 14.2622 78.088C13.9635 78.9093 13.7022 80.1413 13.4782 81.784H10.9022C11.0515 79.992 11.1262 77.9013 11.1262 75.512C11.2009 73.1227 11.2382 70.024 11.2382 66.216C11.3129 62.3333 11.3502 57.4427 11.3502 51.544H13.9262C14.2249 56.472 15.0462 61.1013 16.3902 65.432C17.8089 69.688 19.9369 73.1227 22.7742 75.736C25.6862 78.3493 29.5315 79.656 34.3102 79.656C36.9235 79.656 39.2382 79.208 41.2542 78.312C43.3449 77.3413 45.0249 75.9227 46.2942 74.056C47.5635 72.1893 48.1982 69.8747 48.1982 67.112C48.1982 63.976 47.4515 61.2507 45.9582 58.936C44.5395 56.6213 42.5609 54.456 40.0222 52.44C37.5582 50.424 34.6835 48.3707 31.3982 46.28C27.8889 43.9653 24.6035 41.6507 21.5422 39.336C18.4809 37.0213 16.0169 34.3707 14.1502 31.384C12.3582 28.3973 11.4622 24.8507 11.4622 20.744C11.4622 16.04 12.6195 12.1947 14.9342 9.208C17.3235 6.14666 20.4222 3.90666 24.2302 2.488C28.1129 0.994664 32.2195 0.247998 36.5502 0.247998ZM95.5724 4.72799V23.096H108.788V25.336H95.5724V70.584C95.5724 72.824 95.9831 74.4293 96.8044 75.4C97.6258 76.296 98.8578 76.744 100.5 76.744C101.844 76.744 103.188 76.2587 104.532 75.288C105.876 74.2427 107.071 72.488 108.116 70.024L110.02 71.032C108.826 74.392 106.996 77.1547 104.532 79.32C102.143 81.4853 98.8578 82.568 94.6764 82.568C92.2124 82.568 90.0471 82.232 88.1804 81.56C86.3138 80.9627 84.7458 80.0293 83.4764 78.76C81.8338 77.1173 80.7511 75.1013 80.2284 72.712C79.7058 70.248 79.4444 67.0747 79.4444 63.192V25.336H70.0364V23.096H79.4444V8.31199C82.5804 8.31199 85.4551 8.05066 88.0684 7.528C90.7564 6.93066 93.2578 5.99733 95.5724 4.72799ZM127.667 81.784C124.307 81.784 121.507 81.1493 119.267 79.88C117.027 78.6107 115.385 76.9307 114.339 74.84C113.294 72.6747 112.771 70.3227 112.771 67.784C112.771 64.5733 113.481 61.96 114.899 59.944C116.393 57.928 118.297 56.2853 120.611 55.016C122.926 53.7467 125.353 52.7013 127.891 51.88C130.505 51.0587 132.969 50.2747 135.283 49.528C137.673 48.7067 139.577 47.7733 140.995 46.728C142.489 45.608 143.235 44.1893 143.235 42.472V33.736C143.235 31.7947 142.899 30.0773 142.227 28.584C141.63 27.016 140.659 25.8213 139.315 25C138.046 24.1787 136.366 23.768 134.275 23.768C132.782 23.768 131.289 23.992 129.795 24.44C128.302 24.8133 127.07 25.4853 126.099 26.456C128.19 27.2027 129.795 28.36 130.915 29.928C132.11 31.4213 132.707 33.1387 132.707 35.08C132.707 37.6187 131.811 39.6347 130.019 41.128C128.302 42.6213 126.249 43.368 123.859 43.368C121.171 43.368 119.118 42.5467 117.699 40.904C116.355 39.1867 115.683 37.1333 115.683 34.744C115.683 32.5787 116.206 30.7867 117.251 29.368C118.371 27.9493 119.902 26.6053 121.843 25.336C123.934 24.1413 126.435 23.208 129.347 22.536C132.334 21.864 135.545 21.528 138.979 21.528C142.414 21.528 145.513 21.9013 148.275 22.648C151.038 23.32 153.353 24.5893 155.219 26.456C156.937 28.1733 158.057 30.3013 158.579 32.84C159.102 35.304 159.363 38.44 159.363 42.248V72.712C159.363 74.5787 159.55 75.8853 159.923 76.632C160.297 77.304 160.931 77.64 161.827 77.64C162.499 77.64 163.134 77.4533 163.731 77.08C164.403 76.7067 165.113 76.2587 165.859 75.736L166.979 77.64C165.411 78.984 163.582 80.0293 161.491 80.776C159.475 81.448 157.198 81.784 154.659 81.784C151.897 81.784 149.694 81.4107 148.051 80.664C146.409 79.8427 145.214 78.76 144.467 77.416C143.795 76.072 143.459 74.504 143.459 72.712C141.667 75.5493 139.502 77.7893 136.963 79.432C134.425 81 131.326 81.784 127.667 81.784ZM135.619 74.616C137.113 74.616 138.457 74.28 139.651 73.608C140.921 72.8613 142.115 71.6667 143.235 70.024V47.064C142.563 48.184 141.63 49.192 140.435 50.088C139.241 50.984 137.971 51.9173 136.627 52.888C135.283 53.784 133.977 54.792 132.707 55.912C131.513 57.032 130.542 58.4133 129.795 60.056C129.049 61.6987 128.675 63.6773 128.675 65.992C128.675 68.904 129.31 71.0693 130.579 72.488C131.849 73.9067 133.529 74.616 135.619 74.616ZM199.3 21.528C202.212 21.528 204.863 21.864 207.252 22.536C209.716 23.1333 211.732 23.9173 213.3 24.888C215.242 26.0827 216.735 27.576 217.78 29.368C218.9 31.0853 219.46 33.1013 219.46 35.416C219.46 38.0293 218.639 40.1947 216.996 41.912C215.354 43.5547 213.226 44.376 210.612 44.376C207.999 44.376 205.908 43.6293 204.34 42.136C202.772 40.6427 201.988 38.6267 201.988 36.088C201.988 33.6987 202.735 31.72 204.228 30.152C205.722 28.5093 207.439 27.4267 209.38 26.904C208.783 26.1573 207.887 25.5227 206.692 25C205.498 24.4773 204.154 24.216 202.66 24.216C200.346 24.216 198.292 24.888 196.5 26.232C194.783 27.576 193.327 29.4427 192.132 31.832C190.938 34.2213 190.004 37.0213 189.332 40.232C188.735 43.4427 188.436 46.952 188.436 50.76C188.436 56.5093 189.146 61.0267 190.564 64.312C192.058 67.5973 193.924 69.912 196.164 71.256C198.479 72.6 200.868 73.272 203.332 73.272C204.751 73.272 206.282 73.048 207.924 72.6C209.642 72.152 211.359 71.256 213.076 69.912C214.868 68.568 216.511 66.664 218.004 64.2L219.908 64.872C219.087 67.6347 217.743 70.3973 215.876 73.16C214.01 75.9227 211.583 78.2 208.596 79.992C205.61 81.7093 201.951 82.568 197.62 82.568C192.767 82.568 188.362 81.5227 184.404 79.432C180.522 77.2667 177.386 73.9813 174.996 69.576C172.682 65.096 171.524 59.3467 171.524 52.328C171.524 45.608 172.719 39.9707 175.108 35.416C177.572 30.7867 180.895 27.3147 185.076 25C189.258 22.6853 193.999 21.528 199.3 21.528ZM254.639 21.528C261.209 21.528 266.361 23.4693 270.095 27.352C273.828 31.2347 275.695 37.5813 275.695 46.392H238.847L238.623 44.264H261.583C261.657 40.6053 261.433 37.2453 260.911 34.184C260.388 31.048 259.567 28.5467 258.447 26.68C257.327 24.8133 255.833 23.88 253.967 23.88C251.353 23.88 249.113 25.5227 247.247 28.808C245.455 32.0933 244.372 37.544 243.999 45.16L244.335 45.832C244.26 46.728 244.185 47.6613 244.111 48.632C244.111 49.6027 244.111 50.6107 244.111 51.656C244.111 56.808 244.82 60.9893 246.239 64.2C247.732 67.4107 249.599 69.7627 251.839 71.256C254.079 72.6747 256.356 73.384 258.671 73.384C260.239 73.384 261.844 73.16 263.487 72.712C265.204 72.1893 266.921 71.2933 268.639 70.024C270.356 68.68 271.961 66.8133 273.455 64.424L275.471 65.096C274.575 67.9333 273.156 70.696 271.215 73.384C269.273 76.072 266.809 78.2747 263.823 79.992C260.836 81.7093 257.252 82.568 253.071 82.568C247.993 82.568 243.513 81.4853 239.631 79.32C235.748 77.1547 232.687 73.8693 230.447 69.464C228.281 65.0587 227.199 59.4587 227.199 52.664C227.199 45.72 228.356 39.9333 230.671 35.304C233.06 30.6747 236.308 27.24 240.415 25C244.596 22.6853 249.337 21.528 254.639 21.528ZM335.636 23.096V25.336C334.217 25.7093 332.873 26.6053 331.604 28.024C330.334 29.368 329.102 31.6827 327.908 34.968L312.116 79.32L307.972 87.16L283.556 31.72C282.286 28.808 281.017 27.0533 279.748 26.456C278.553 25.784 277.508 25.448 276.612 25.448V23.096C279.076 23.32 281.614 23.5067 284.228 23.656C286.916 23.7307 289.492 23.768 291.956 23.768C295.017 23.768 297.817 23.6933 300.356 23.544C302.894 23.3947 305.284 23.2453 307.524 23.096V25.448C306.03 25.448 304.612 25.56 303.268 25.784C301.998 25.9333 301.102 26.456 300.58 27.352C300.132 28.1733 300.356 29.6293 301.252 31.72L315.364 65.768L314.356 66.44L322.644 43.256C324.062 39.224 324.66 35.9387 324.436 33.4C324.212 30.7867 323.39 28.8453 321.972 27.576C320.553 26.232 318.612 25.4853 316.148 25.336V23.096C317.342 23.1707 318.574 23.2453 319.844 23.32C321.113 23.32 322.382 23.3573 323.652 23.432C324.921 23.432 326.041 23.432 327.012 23.432C328.505 23.432 330.073 23.3947 331.716 23.32C333.358 23.2453 334.665 23.1707 335.636 23.096ZM312.116 79.32L307.86 91.304C307.113 93.1707 306.329 94.7387 305.508 96.008C304.761 97.352 303.902 98.4347 302.932 99.256C301.886 100.152 300.542 100.824 298.9 101.272C297.257 101.795 295.353 102.056 293.188 102.056C291.396 102.056 289.529 101.757 287.588 101.16C285.721 100.563 284.153 99.592 282.884 98.248C281.614 96.904 280.98 95.1867 280.98 93.096C280.98 90.7813 281.801 88.9147 283.444 87.496C285.086 86.152 287.252 85.48 289.94 85.48C292.404 85.48 294.42 86.0773 295.988 87.272C297.556 88.4667 298.34 90.2213 298.34 92.536C298.34 94.0293 297.854 95.448 296.884 96.792C295.988 98.136 294.606 99.144 292.74 99.816C293.113 99.8907 293.561 99.928 294.084 99.928C294.606 99.928 295.017 99.928 295.316 99.928C297.556 99.928 299.534 99.2187 301.252 97.8C302.969 96.3813 304.388 94.1413 305.508 91.08L309.428 79.544L312.116 79.32ZM27.5163 130.68C29.9083 130.68 31.8403 130.864 33.3123 131.232C34.7843 131.539 36.0416 131.999 37.0843 132.612C38.0656 133.041 38.9549 133.593 39.7523 134.268C40.6109 134.943 41.3163 135.771 41.8683 136.752C42.4203 137.733 42.6963 138.837 42.6963 140.064C42.6963 141.904 41.9909 143.376 40.5803 144.48C39.1696 145.584 37.5136 146.136 35.6123 146.136C33.7723 146.136 32.1776 145.676 30.8283 144.756C29.5403 143.836 28.8963 142.395 28.8963 140.432C28.8963 138.899 29.4483 137.519 30.5523 136.292C31.6563 135.004 33.0669 134.207 34.7843 133.9C34.3549 133.409 33.5576 133.011 32.3923 132.704C31.2883 132.397 30.0616 132.244 28.7123 132.244C25.5229 132.244 22.7936 133.256 20.5243 135.28C18.3163 137.243 17.2123 140.248 17.2123 144.296C17.2123 145.707 17.4576 147.209 17.9483 148.804C18.4389 150.399 19.3896 152.024 20.8002 153.68C21.8429 153.435 22.7936 153.251 23.6523 153.128C24.5723 153.005 25.3389 152.944 25.9523 152.944C27.0563 152.944 27.8843 153.189 28.4363 153.68C29.0496 154.109 29.3563 154.692 29.3563 155.428C29.3563 155.98 29.1109 156.44 28.6203 156.808C28.1296 157.176 27.5163 157.36 26.7803 157.36C25.7376 157.36 24.6643 157.084 23.5603 156.532C22.4563 155.919 21.5669 155.397 20.8923 154.968C18.0096 156.44 15.6483 158.341 13.8083 160.672C12.0296 162.941 11.1403 166.008 11.1403 169.872C11.1403 173.92 12.2443 177.263 14.4523 179.9C16.6603 182.476 19.7576 184.439 23.7443 185.788C27.7923 187.076 32.5456 187.72 38.0043 187.72C41.0709 187.72 44.1069 187.383 47.1123 186.708C50.1176 186.033 52.8163 185.021 55.2083 183.672C57.6616 182.323 59.6243 180.667 61.0963 178.704C62.5683 176.68 63.3043 174.349 63.3043 171.712C63.3043 170.731 63.1509 169.504 62.8443 168.032C62.5989 166.499 61.9549 164.996 60.9123 163.524C59.8696 161.991 58.1523 160.733 55.7603 159.752L56.4043 158.924C59.7163 159.967 62.2309 161.929 63.9483 164.812C65.6656 167.695 66.5243 171.007 66.5243 174.748C66.5243 179.041 65.2056 182.905 62.5683 186.34C59.9309 189.713 56.2203 192.381 51.4363 194.344C46.7136 196.307 41.1629 197.288 34.7843 197.288C29.6936 197.288 25.0629 196.767 20.8923 195.724C16.7829 194.681 13.2256 193.179 10.2203 191.216C7.27625 189.192 4.97625 186.769 3.32025 183.948C1.72558 181.127 0.92825 177.937 0.92825 174.38C0.92825 170.945 1.63358 168.032 3.04425 165.64C4.51625 163.187 6.29492 161.193 8.38025 159.66C10.4656 158.065 12.5509 156.839 14.6363 155.98C16.7216 155.121 18.3776 154.539 19.6043 154.232C17.7029 153.435 15.9549 152.515 14.3603 151.472C12.8269 150.368 11.5696 149.08 10.5883 147.608C9.66825 146.136 9.20825 144.48 9.20825 142.64C9.20825 140.677 9.72958 138.96 10.7723 137.488C11.8149 135.955 13.1949 134.697 14.9123 133.716C16.6909 132.735 18.6536 131.999 20.8002 131.508C23.0083 130.956 25.2469 130.68 27.5163 130.68ZM63.6723 129.576C68.0269 129.576 71.5536 130.711 74.2523 132.98C76.9509 135.249 78.3003 138.439 78.3003 142.548C78.3003 145.676 77.5336 148.313 76.0003 150.46C74.5283 152.607 72.3816 154.355 69.5603 155.704C66.8003 157.053 63.4883 158.127 59.6243 158.924C58.7656 159.231 57.6923 159.599 56.4043 160.028C55.1163 160.396 53.7976 160.764 52.4483 161.132C51.0989 161.5 49.7803 161.868 48.4923 162.236C47.2656 162.604 46.1923 162.911 45.2723 163.156C40.4883 164.199 36.8083 165.395 34.2323 166.744C31.6563 168.032 30.3683 169.811 30.3683 172.08C30.3683 173.613 30.8589 174.932 31.8403 176.036C32.8829 177.14 34.1709 177.999 35.7043 178.612C37.2376 179.225 38.7709 179.532 40.3043 179.532C40.7336 179.532 41.1936 179.501 41.6843 179.44C42.1749 179.317 42.6349 179.195 43.0643 179.072C43.4936 178.888 43.8003 178.735 43.9843 178.612C42.4509 178.121 41.2856 177.355 40.4883 176.312C39.7523 175.208 39.3843 173.951 39.3843 172.54C39.3843 170.577 40.0896 169.075 41.5003 168.032C42.9109 166.989 44.6589 166.468 46.7443 166.468C48.9523 166.468 50.6696 167.051 51.8963 168.216C53.1843 169.381 53.8283 170.884 53.8283 172.724C53.8283 174.625 53.2456 176.22 52.0803 177.508C50.9149 178.735 49.3509 179.655 47.3883 180.268C45.4256 180.82 43.2176 181.096 40.7643 181.096C38.3723 181.096 36.1029 180.667 33.9563 179.808C31.8709 178.949 30.1843 177.661 28.8963 175.944C27.6696 174.165 27.0563 171.957 27.0563 169.32C27.0563 166.069 27.8843 163.371 29.5403 161.224C31.1963 159.016 33.5576 157.207 36.6243 155.796C39.7523 154.324 43.4323 153.189 47.6643 152.392C48.9523 152.085 50.3629 151.748 51.8963 151.38C53.4909 150.951 55.1163 150.521 56.7723 150.092C58.4283 149.663 59.9616 149.203 61.3723 148.712C65.7883 147.608 69.1923 146.381 71.5843 145.032C74.0376 143.683 75.2643 141.873 75.2643 139.604C75.2643 137.948 74.7429 136.507 73.7003 135.28C72.7189 133.992 71.4309 133.011 69.8363 132.336C68.2416 131.6 66.5856 131.232 64.8683 131.232C64.3163 131.232 63.7949 131.263 63.3043 131.324C62.8749 131.385 62.5069 131.508 62.2003 131.692C63.7336 132.244 64.8683 133.072 65.6043 134.176C66.3403 135.28 66.7083 136.384 66.7083 137.488C66.7083 139.389 66.0029 140.861 64.5923 141.904C63.1816 142.885 61.4336 143.376 59.3483 143.376C57.2629 143.376 55.5456 142.855 54.1963 141.812C52.8469 140.708 52.1723 139.205 52.1723 137.304C52.1723 135.648 52.6323 134.268 53.5523 133.164C54.5336 131.999 55.8829 131.109 57.6003 130.496C59.3176 129.883 61.3416 129.576 63.6723 129.576ZM103.377 217.056V214.816C106.364 214.517 108.902 213.621 110.993 212.128C113.084 210.709 114.689 208.245 115.809 204.736C116.929 201.227 117.489 196.299 117.489 189.952V128.576C117.489 125.813 117.265 123.797 116.817 122.528C116.444 121.184 115.66 120.288 114.465 119.84C113.27 119.317 111.478 119.019 109.089 118.944V116.704C110.956 116.779 113.382 116.853 116.369 116.928C119.43 117.003 122.641 117.04 126.001 117.04C129.361 117.04 132.609 117.003 135.745 116.928C138.956 116.853 141.606 116.779 143.697 116.704V118.944C141.382 119.019 139.59 119.317 138.321 119.84C137.126 120.288 136.305 121.184 135.857 122.528C135.484 123.797 135.297 125.813 135.297 128.576V169.568C135.297 172.629 135.297 175.952 135.297 179.536C135.297 183.045 135.148 186.48 134.849 189.84C134.625 193.2 134.14 196.187 133.393 198.8C131.9 203.952 128.652 208.283 123.649 211.792C118.721 215.301 111.964 217.056 103.377 217.056ZM176.256 136.528C181.707 136.528 186.485 137.536 190.592 139.552C194.699 141.568 197.909 144.816 200.224 149.296C202.539 153.776 203.696 159.712 203.696 167.104C203.696 174.496 202.539 180.432 200.224 184.912C197.909 189.317 194.699 192.528 190.592 194.544C186.485 196.56 181.707 197.568 176.256 197.568C170.955 197.568 166.213 196.56 162.032 194.544C157.925 192.528 154.677 189.317 152.288 184.912C149.973 180.432 148.816 174.496 148.816 167.104C148.816 159.712 149.973 153.776 152.288 149.296C154.677 144.816 157.925 141.568 162.032 139.552C166.213 137.536 170.955 136.528 176.256 136.528ZM176.256 138.768C173.269 138.768 170.768 141.008 168.752 145.488C166.736 149.893 165.728 157.099 165.728 167.104C165.728 177.109 166.736 184.315 168.752 188.72C170.768 193.125 173.269 195.328 176.256 195.328C179.317 195.328 181.819 193.125 183.76 188.72C185.776 184.315 186.784 177.109 186.784 167.104C186.784 157.099 185.776 149.893 183.76 145.488C181.819 141.008 179.317 138.768 176.256 138.768ZM232.33 108.416V146.944C234.197 143.061 236.698 140.373 239.834 138.88C243.045 137.312 246.629 136.528 250.586 136.528C253.797 136.528 256.373 136.939 258.314 137.76C260.256 138.507 261.786 139.552 262.906 140.896C264.176 142.315 265.072 144.144 265.594 146.384C266.192 148.624 266.49 151.648 266.49 155.456V185.584C266.49 188.72 267.013 190.848 268.058 191.968C269.178 193.088 271.045 193.648 273.658 193.648V196C272.24 195.925 270.074 195.851 267.162 195.776C264.325 195.627 261.562 195.552 258.874 195.552C255.962 195.552 253.125 195.627 250.362 195.776C247.674 195.851 245.658 195.925 244.314 196V193.648C246.554 193.648 248.122 193.088 249.018 191.968C249.914 190.848 250.362 188.72 250.362 185.584V150.752C250.362 148.885 250.176 147.28 249.802 145.936C249.429 144.517 248.72 143.435 247.674 142.688C246.704 141.867 245.285 141.456 243.418 141.456C241.402 141.456 239.536 142.016 237.818 143.136C236.176 144.181 234.832 145.675 233.786 147.616C232.816 149.557 232.33 151.797 232.33 154.336V185.584C232.33 188.72 232.778 190.848 233.674 191.968C234.57 193.088 236.138 193.648 238.378 193.648V196C237.034 195.925 235.056 195.851 232.442 195.776C229.829 195.627 227.178 195.552 224.49 195.552C221.578 195.552 218.629 195.627 215.642 195.776C212.73 195.851 210.528 195.925 209.034 196V193.648C211.648 193.648 213.477 193.088 214.522 191.968C215.642 190.848 216.202 188.72 216.202 185.584V121.856C216.202 118.496 215.68 116.032 214.634 114.464C213.664 112.821 211.797 112 209.034 112V109.648C211.424 109.872 213.738 109.984 215.978 109.984C219.04 109.984 221.952 109.872 224.714 109.648C227.477 109.349 230.016 108.939 232.33 108.416ZM319.399 136.528C322.535 136.528 325.074 136.939 327.015 137.76C329.031 138.507 330.599 139.552 331.719 140.896C332.914 142.315 333.772 144.144 334.295 146.384C334.892 148.624 335.191 151.648 335.191 155.456V185.584C335.191 188.72 335.714 190.848 336.759 191.968C337.879 193.088 339.746 193.648 342.359 193.648V196C340.94 195.925 338.812 195.851 335.975 195.776C333.138 195.627 330.338 195.552 327.575 195.552C324.738 195.552 321.938 195.627 319.175 195.776C316.487 195.851 314.434 195.925 313.015 196V193.648C315.255 193.648 316.823 193.088 317.719 191.968C318.615 190.848 319.063 188.72 319.063 185.584V150.752C319.063 148.885 318.876 147.28 318.503 145.936C318.13 144.517 317.458 143.435 316.487 142.688C315.516 141.867 314.06 141.456 312.119 141.456C310.103 141.456 308.236 142.016 306.519 143.136C304.876 144.256 303.532 145.824 302.487 147.84C301.516 149.781 301.031 151.984 301.031 154.448V185.584C301.031 188.72 301.479 190.848 302.375 191.968C303.346 193.088 304.914 193.648 307.079 193.648V196C305.735 195.925 303.756 195.851 301.143 195.776C298.604 195.627 295.954 195.552 293.191 195.552C290.354 195.552 287.442 195.627 284.455 195.776C281.468 195.851 279.228 195.925 277.735 196V193.648C280.348 193.648 282.178 193.088 283.223 191.968C284.343 190.848 284.903 188.72 284.903 185.584V150.304C284.903 146.944 284.38 144.48 283.335 142.912C282.364 141.269 280.498 140.448 277.735 140.448V138.096C280.124 138.32 282.439 138.432 284.679 138.432C287.815 138.432 290.727 138.32 293.415 138.096C296.178 137.797 298.716 137.387 301.031 136.864V146.944C302.898 143.136 305.436 140.448 308.647 138.88C311.858 137.312 315.442 136.528 319.399 136.528Z" fill="white"/>
</svg>
